<mxfile host="app.diagrams.net" agent="Mozilla/5.0 (Macintosh; Intel Mac OS X 10_15_7) AppleWebKit/605.1.15 (KHTML, like Gecko) Version/17.1 Safari/605.1.15" version="24.7.17">
  <diagram name="Page-1" id="86km8IPN4EG1R-QPghiF">
    <mxGraphModel>
      <root>
        <mxCell id="0" />
        <mxCell id="1" parent="0" />
        <mxCell id="2" value="Master Server" style="rounded=1;arcSize=40;strokeWidth=2" vertex="1" parent="1">
          <mxGeometry x="8" y="129" width="128" height="49" as="geometry" />
        </mxCell>
        <mxCell id="3" value="FHIR Server" style="whiteSpace=wrap;strokeWidth=2;" vertex="1" parent="1">
          <mxGeometry x="286" y="198" width="143" height="49" as="geometry" />
        </mxCell>
        <mxCell id="4" value="Central Postgres DB" style="whiteSpace=wrap;strokeWidth=2;" vertex="1" parent="1">
          <mxGeometry x="583" y="80" width="201" height="49" as="geometry" />
        </mxCell>
        <mxCell id="5" value="Elasticsearch Service" style="whiteSpace=wrap;strokeWidth=2;" vertex="1" parent="1">
          <mxGeometry x="578" y="287" width="210" height="49" as="geometry" />
        </mxCell>
        <mxCell id="6" value="Kibana Service" style="whiteSpace=wrap;strokeWidth=2;" vertex="1" parent="1">
          <mxGeometry x="275" y="66" width="165" height="49" as="geometry" />
        </mxCell>
        <mxCell id="7" value="Slave Server" style="rounded=1;arcSize=40;strokeWidth=2" vertex="1" parent="1">
          <mxGeometry x="13" y="247" width="118" height="49" as="geometry" />
        </mxCell>
        <mxCell id="8" value="Sends data" style="curved=1;startArrow=none;endArrow=block;exitX=1;exitY=0.36;entryX=0.19;entryY=0;" edge="1" parent="1" source="2" target="3">
          <mxGeometry relative="1" as="geometry">
            <Array as="points">
              <mxPoint x="205" y="139" />
            </Array>
          </mxGeometry>
        </mxCell>
        <mxCell id="9" value="Stores data" style="curved=1;startArrow=none;endArrow=block;exitX=0.69;exitY=0;entryX=0.25;entryY=-0.01;" edge="1" parent="1" source="2" target="4">
          <mxGeometry relative="1" as="geometry">
            <Array as="points">
              <mxPoint x="205" y="19" />
              <mxPoint x="509" y="19" />
            </Array>
          </mxGeometry>
        </mxCell>
        <mxCell id="10" value="Stores data" style="curved=1;startArrow=none;endArrow=block;exitX=0.68;exitY=0.99;entryX=0;entryY=0.31;" edge="1" parent="1" source="2" target="5">
          <mxGeometry relative="1" as="geometry">
            <Array as="points">
              <mxPoint x="205" y="296" />
              <mxPoint x="509" y="296" />
            </Array>
          </mxGeometry>
        </mxCell>
        <mxCell id="11" value="View data" style="curved=1;startArrow=none;endArrow=block;exitX=0.9;exitY=0;entryX=0;entryY=0.49;" edge="1" parent="1" source="2" target="6">
          <mxGeometry relative="1" as="geometry">
            <Array as="points">
              <mxPoint x="205" y="90" />
            </Array>
          </mxGeometry>
        </mxCell>
        <mxCell id="12" value="Sends data" style="curved=1;startArrow=none;endArrow=block;exitX=0.9;exitY=0;entryX=0;entryY=0.3;" edge="1" parent="1" source="7" target="3">
          <mxGeometry relative="1" as="geometry">
            <Array as="points">
              <mxPoint x="205" y="202" />
            </Array>
          </mxGeometry>
        </mxCell>
        <mxCell id="13" value="Connects to" style="curved=1;startArrow=none;endArrow=block;exitX=1;exitY=0.49;entryX=0.32;entryY=0.98;" edge="1" parent="1" source="3" target="4">
          <mxGeometry relative="1" as="geometry">
            <Array as="points">
              <mxPoint x="509" y="222" />
            </Array>
          </mxGeometry>
        </mxCell>
        <mxCell id="14" value="Connects to" style="curved=1;startArrow=none;endArrow=block;exitX=0.74;exitY=0.99;entryX=0;entryY=0.7;" edge="1" parent="1" source="3" target="5">
          <mxGeometry relative="1" as="geometry">
            <Array as="points">
              <mxPoint x="509" y="327" />
            </Array>
          </mxGeometry>
        </mxCell>
        <mxCell id="15" value="Connects to" style="curved=1;startArrow=none;endArrow=block;exitX=0;exitY=0.71;entryX=0.77;entryY=0.99;" edge="1" parent="1" source="3" target="2">
          <mxGeometry relative="1" as="geometry">
            <Array as="points">
              <mxPoint x="205" y="245" />
            </Array>
          </mxGeometry>
        </mxCell>
      </root>
    </mxGraphModel>
  </diagram>
</mxfile>
